<svg xmlns="http://www.w3.org/2000/svg" xmlns:xlink="http://www.w3.org/1999/xlink" width="500" zoomAndPan="magnify" viewBox="0 0 375 374.999991" height="500" preserveAspectRatio="xMidYMid meet" version="1.0"><defs><g/><clipPath id="133d7c8483"><path d="M 144.746094 93.964844 L 161.945312 93.964844 L 161.945312 194.902344 L 144.746094 194.902344 Z M 144.746094 93.964844 " clip-rule="nonzero"/></clipPath><clipPath id="4e17f3b45e"><path d="M 161.859375 95.703125 C 161.410156 129.902344 160.207031 139.953125 158.484375 150.753906 C 156.535156 163.050781 153.308594 183.453125 150.457031 190.050781 C 149.410156 192.527344 148.207031 194.253906 147.160156 194.777344 C 146.632812 195.003906 145.957031 194.851562 145.507812 194.628906 C 145.132812 194.328125 144.683594 193.652344 144.757812 193.203125 C 144.832031 192.601562 145.957031 191.402344 146.558594 191.402344 C 147.160156 191.402344 148.285156 192.675781 148.207031 193.277344 C 148.207031 193.878906 146.785156 194.925781 146.257812 194.851562 C 145.660156 194.777344 144.757812 193.578125 144.757812 192.828125 C 144.757812 191.777344 146.410156 190.953125 147.160156 189.300781 C 148.433594 186.378906 149.183594 181.726562 150.308594 176.101562 C 152.332031 166.128906 156.007812 145.050781 157.285156 134.777344 C 157.957031 128.777344 158.183594 125.777344 158.410156 120.226562 C 158.632812 113.101562 156.683594 98.628906 158.183594 95.476562 C 158.707031 94.503906 159.535156 93.902344 160.132812 93.976562 C 160.734375 94.050781 161.859375 95.703125 161.859375 95.703125 " clip-rule="nonzero"/></clipPath><clipPath id="d4f5be8670"><path d="M 160.714844 128.234375 L 258.039062 128.234375 L 258.039062 143.058594 L 160.714844 143.058594 Z M 160.714844 128.234375 " clip-rule="nonzero"/></clipPath><clipPath id="a8a09b4520"><path d="M 162.308594 139.050781 C 212.410156 132.601562 247.433594 131.476562 253.734375 129.527344 C 255.082031 129.078125 255.308594 128.253906 255.984375 128.253906 C 256.582031 128.175781 257.257812 128.476562 257.558594 128.851562 C 257.859375 129.226562 258.082031 129.976562 257.933594 130.503906 C 257.785156 131.027344 256.808594 131.777344 256.207031 131.777344 C 255.757812 131.851562 255.007812 131.476562 254.707031 131.027344 C 254.410156 130.652344 254.332031 129.828125 254.558594 129.378906 C 254.707031 128.925781 255.308594 128.328125 255.832031 128.253906 C 256.359375 128.175781 257.484375 128.703125 257.785156 129.152344 C 258.082031 129.601562 258.082031 130.351562 257.785156 130.800781 C 257.332031 131.703125 256.132812 132.378906 253.957031 133.050781 C 246.160156 135.527344 212.785156 136.128906 196.132812 138.003906 C 183.382812 139.503906 166.660156 144.152344 162.535156 142.800781 C 161.410156 142.425781 160.734375 141.675781 160.734375 141.078125 C 160.660156 140.402344 162.308594 139.050781 162.308594 139.050781 " clip-rule="nonzero"/></clipPath><clipPath id="fc46cfeb21"><path d="M 159.472656 101.414062 L 235.195312 101.414062 L 235.195312 269 L 159.472656 269 Z M 159.472656 101.414062 " clip-rule="nonzero"/></clipPath><clipPath id="140745610f"><path d="M 235.058594 103.878906 C 229.207031 130.652344 227.707031 147.226562 226.734375 163.652344 C 225.535156 184.503906 226.433594 218.328125 225.308594 234.527344 C 224.707031 243.078125 224.410156 249.226562 222.910156 253.953125 C 221.859375 257.101562 220.507812 259.128906 218.933594 261.152344 C 217.433594 262.953125 216.082031 264.527344 213.832031 265.726562 C 210.984375 267.226562 206.109375 267.902344 202.507812 268.351562 C 199.132812 268.878906 196.207031 269.027344 192.910156 268.878906 C 189.160156 268.652344 185.183594 267.902344 181.132812 267.078125 C 176.707031 266.101562 171.234375 264.675781 167.484375 263.175781 C 164.707031 262.050781 161.632812 260.703125 160.507812 259.425781 C 159.910156 258.675781 159.609375 257.777344 159.683594 257.253906 C 159.757812 256.800781 160.058594 256.425781 160.359375 256.203125 C 160.808594 255.976562 161.707031 255.753906 162.160156 255.976562 C 162.757812 256.203125 163.433594 257.328125 163.433594 257.925781 C 163.433594 258.453125 162.984375 259.203125 162.457031 259.425781 C 161.933594 259.726562 160.660156 259.503906 160.132812 259.128906 C 159.757812 258.828125 159.609375 257.925781 159.609375 257.402344 C 159.683594 257.027344 159.910156 256.578125 160.207031 256.351562 C 160.582031 256.050781 161.257812 255.753906 161.933594 255.902344 C 163.507812 256.128906 165.757812 258.675781 168.382812 259.800781 C 171.984375 261.378906 177.535156 262.726562 181.808594 263.628906 C 185.632812 264.453125 189.234375 265.128906 192.757812 265.277344 C 195.984375 265.425781 198.910156 265.277344 201.984375 264.828125 C 205.207031 264.453125 209.632812 263.550781 211.734375 262.652344 C 212.859375 262.128906 213.308594 261.753906 214.207031 261.003906 C 215.484375 259.800781 217.207031 257.777344 218.257812 255.902344 C 219.308594 254.027344 219.832031 252.226562 220.359375 249.675781 C 221.257812 245.703125 221.558594 241.128906 221.933594 234.453125 C 222.609375 221.851562 221.933594 197.253906 222.683594 179.628906 C 223.359375 163.128906 224.558594 144.902344 225.984375 131.925781 C 226.957031 123.078125 228.160156 114.753906 229.433594 109.503906 C 230.109375 106.578125 230.558594 104.027344 231.535156 102.753906 C 232.132812 102.003906 233.035156 101.476562 233.632812 101.550781 C 234.160156 101.550781 234.757812 102.152344 234.984375 102.601562 C 235.132812 102.976562 235.058594 103.878906 235.058594 103.878906 " clip-rule="nonzero"/></clipPath></defs><g clip-path="url(#133d7c8483)"><g clip-path="url(#4e17f3b45e)"><path fill="#ff66c4" d="M 141.757812 90.976562 L 164.933594 90.976562 L 164.933594 197.890625 L 141.757812 197.890625 Z M 141.757812 90.976562 " fill-opacity="1" fill-rule="nonzero"/></g></g><g clip-path="url(#d4f5be8670)"><g clip-path="url(#a8a09b4520)"><path fill="#ff66c4" d="M 157.734375 125.253906 L 261.019531 125.253906 L 261.019531 145.878906 L 157.734375 145.878906 Z M 157.734375 125.253906 " fill-opacity="1" fill-rule="nonzero"/></g></g><g clip-path="url(#fc46cfeb21)"><g clip-path="url(#140745610f)"><path fill="#ff66c4" d="M 156.609375 98.550781 L 238.058594 98.550781 L 238.058594 271.953125 L 156.609375 271.953125 Z M 156.609375 98.550781 " fill-opacity="1" fill-rule="nonzero"/></g></g><g fill="#cb6ce6" fill-opacity="1"><g transform="translate(175.490633, 218.253809)"><g><path d="M 17.15625 -1.4375 C 17.300781 -1.945312 17.472656 -2.515625 17.671875 -3.140625 C 17.867188 -3.765625 18.0625 -4.394531 18.25 -5.03125 C 18.445312 -5.664062 18.644531 -6.296875 18.84375 -6.921875 C 19.039062 -7.546875 19.222656 -8.113281 19.390625 -8.625 L 20.828125 -13.046875 C 21.679688 -15.585938 21.785156 -17.421875 21.140625 -18.546875 C 20.492188 -19.671875 19.300781 -20.234375 17.5625 -20.234375 C 16.207031 -20.234375 14.867188 -19.921875 13.546875 -19.296875 C 12.234375 -18.671875 10.816406 -17.722656 9.296875 -16.453125 L 11.71875 -23.90625 L 13.734375 -29.75 L 13.296875 -30.078125 L 5.515625 -28.5 L 5.171875 -27.484375 L 8.078125 -27.25 L 2.015625 -8.625 C 1.847656 -8.113281 1.664062 -7.550781 1.46875 -6.9375 C 1.269531 -6.332031 1.066406 -5.707031 0.859375 -5.0625 C 0.648438 -4.425781 0.4375 -3.796875 0.21875 -3.171875 C 0 -2.546875 -0.195312 -1.976562 -0.375 -1.46875 L -3.15625 -1.140625 L -3.53125 0 L 6.46875 0 L 6.828125 -1.140625 L 4.59375 -1.4375 C 4.738281 -1.945312 4.898438 -2.519531 5.078125 -3.15625 C 5.265625 -3.789062 5.457031 -4.425781 5.65625 -5.0625 C 5.851562 -5.707031 6.046875 -6.332031 6.234375 -6.9375 C 6.429688 -7.550781 6.617188 -8.113281 6.796875 -8.625 L 8.96875 -15.25 C 10.132812 -16.082031 11.175781 -16.6875 12.09375 -17.0625 C 13.019531 -17.4375 13.847656 -17.625 14.578125 -17.625 C 15.535156 -17.625 16.164062 -17.304688 16.46875 -16.671875 C 16.78125 -16.035156 16.675781 -14.921875 16.15625 -13.328125 L 14.625 -8.625 C 14.445312 -8.113281 14.257812 -7.546875 14.0625 -6.921875 C 13.875 -6.296875 13.664062 -5.664062 13.4375 -5.03125 C 13.21875 -4.394531 13.003906 -3.769531 12.796875 -3.15625 C 12.585938 -2.539062 12.398438 -1.976562 12.234375 -1.46875 L 9.484375 -1.140625 L 9.109375 0 L 19.171875 0 L 19.546875 -1.140625 Z M 17.15625 -1.4375 "/></g></g></g><g fill="#cb6ce6" fill-opacity="1"><g transform="translate(208.803029, 218.253809)"><g><path d="M 18.1875 -1.359375 L 22.21875 -13.734375 L 24.25 -19.609375 L 23.953125 -20.015625 L 16.53125 -18.984375 L 16.234375 -18.03125 L 18.65625 -17.5625 L 14.359375 -4.484375 C 13.453125 -3.796875 12.550781 -3.257812 11.65625 -2.875 C 10.769531 -2.5 9.910156 -2.3125 9.078125 -2.3125 C 8.046875 -2.3125 7.363281 -2.625 7.03125 -3.25 C 6.695312 -3.875 6.789062 -4.992188 7.3125 -6.609375 L 9.65625 -13.734375 L 11.796875 -19.609375 L 11.5 -20.015625 L 3.9375 -19.0625 L 3.59375 -18.03125 L 6.171875 -17.515625 L 2.578125 -6.875 C 2.109375 -5.5 1.847656 -4.332031 1.796875 -3.375 C 1.742188 -2.425781 1.863281 -1.65625 2.15625 -1.0625 C 2.457031 -0.476562 2.921875 -0.0546875 3.546875 0.203125 C 4.171875 0.460938 4.921875 0.59375 5.796875 0.59375 C 7.171875 0.59375 8.566406 0.234375 9.984375 -0.484375 C 11.410156 -1.210938 12.75 -2.140625 14 -3.265625 L 13.046875 0.40625 L 20.234375 0 L 20.609375 -1.109375 Z M 18.1875 -1.359375 "/></g></g></g><g fill="#cb6ce6" fill-opacity="1"><g transform="translate(241.674701, 218.253809)"><g><path d="M 9.21875 -7.96875 C 8.070312 -7.96875 7.347656 -8.460938 7.046875 -9.453125 C 6.753906 -10.453125 6.890625 -11.796875 7.453125 -13.484375 C 8.015625 -15.191406 8.773438 -16.539062 9.734375 -17.53125 C 10.691406 -18.53125 11.742188 -19.03125 12.890625 -19.03125 C 14.015625 -19.03125 14.742188 -18.546875 15.078125 -17.578125 C 15.410156 -16.609375 15.296875 -15.28125 14.734375 -13.59375 C 14.171875 -11.851562 13.40625 -10.476562 12.4375 -9.46875 C 11.46875 -8.46875 10.394531 -7.96875 9.21875 -7.96875 Z M 9.703125 0.984375 C 10.359375 0.984375 10.890625 1.0625 11.296875 1.21875 C 11.703125 1.382812 11.992188 1.609375 12.171875 1.890625 C 12.359375 2.171875 12.453125 2.5 12.453125 2.875 C 12.453125 3.257812 12.378906 3.660156 12.234375 4.078125 C 11.867188 5.203125 10.96875 6.140625 9.53125 6.890625 C 8.101562 7.640625 6.203125 8.015625 3.828125 8.015625 C 2.128906 8.015625 0.910156 7.664062 0.171875 6.96875 C -0.554688 6.269531 -0.695312 5.234375 -0.25 3.859375 C -0.0625 3.222656 0.210938 2.660156 0.578125 2.171875 C 0.953125 1.679688 1.429688 1.191406 2.015625 0.703125 C 2.429688 0.816406 2.890625 0.890625 3.390625 0.921875 C 3.898438 0.960938 4.582031 0.984375 5.4375 0.984375 Z M 24.171875 -19.84375 L 23.6875 -20.234375 L 18.484375 -18.515625 C 17.472656 -19.660156 15.742188 -20.234375 13.296875 -20.234375 C 11.992188 -20.234375 10.789062 -20.070312 9.6875 -19.75 C 8.59375 -19.4375 7.609375 -18.984375 6.734375 -18.390625 C 5.867188 -17.804688 5.128906 -17.101562 4.515625 -16.28125 C 3.898438 -15.46875 3.4375 -14.5625 3.125 -13.5625 C 2.707031 -12.28125 2.609375 -11.148438 2.828125 -10.171875 C 3.046875 -9.191406 3.570312 -8.410156 4.40625 -7.828125 C 3.03125 -6.890625 1.992188 -6.050781 1.296875 -5.3125 C 0.597656 -4.582031 0.117188 -3.789062 -0.140625 -2.9375 C -0.410156 -2.082031 -0.398438 -1.394531 -0.109375 -0.875 C 0.179688 -0.363281 0.695312 0.0507812 1.4375 0.375 C -0.03125 0.9375 -1.1875 1.566406 -2.03125 2.265625 C -2.882812 2.960938 -3.441406 3.738281 -3.703125 4.59375 C -3.929688 5.28125 -3.984375 5.921875 -3.859375 6.515625 C -3.734375 7.117188 -3.398438 7.644531 -2.859375 8.09375 C -2.328125 8.550781 -1.550781 8.90625 -0.53125 9.15625 C 0.476562 9.414062 1.769531 9.546875 3.34375 9.546875 C 5.15625 9.546875 6.804688 9.347656 8.296875 8.953125 C 9.796875 8.566406 11.113281 8.039062 12.25 7.375 C 13.382812 6.71875 14.332031 5.945312 15.09375 5.0625 C 15.851562 4.1875 16.394531 3.269531 16.71875 2.3125 C 17.25 0.644531 17.09375 -0.664062 16.25 -1.625 C 15.40625 -2.59375 13.675781 -3.078125 11.0625 -3.078125 L 5.65625 -3.078125 C 4.625 -3.078125 3.957031 -3.25 3.65625 -3.59375 C 3.351562 -3.9375 3.3125 -4.441406 3.53125 -5.109375 C 3.800781 -5.910156 4.328125 -6.679688 5.109375 -7.421875 C 5.597656 -7.203125 6.140625 -7.03125 6.734375 -6.90625 C 7.335938 -6.78125 8.03125 -6.71875 8.8125 -6.71875 C 10.113281 -6.71875 11.3125 -6.882812 12.40625 -7.21875 C 13.507812 -7.550781 14.492188 -8.019531 15.359375 -8.625 C 16.234375 -9.238281 16.988281 -9.960938 17.625 -10.796875 C 18.269531 -11.628906 18.75 -12.550781 19.0625 -13.5625 C 19.550781 -15.101562 19.578125 -16.410156 19.140625 -17.484375 L 23.328125 -17.15625 Z M 24.171875 -19.84375 "/></g></g></g><g fill="#cb6ce6" fill-opacity="1"><g transform="translate(271.644973, 218.253809)"><g><path d="M 7.9375 0.59375 C 9.332031 0.59375 10.710938 0.359375 12.078125 -0.109375 C 13.453125 -0.578125 14.726562 -1.265625 15.90625 -2.171875 C 17.082031 -3.078125 18.128906 -4.175781 19.046875 -5.46875 C 19.960938 -6.769531 20.691406 -8.238281 21.234375 -9.875 C 21.773438 -11.539062 21.988281 -13.015625 21.875 -14.296875 C 21.757812 -15.585938 21.390625 -16.671875 20.765625 -17.546875 C 20.148438 -18.429688 19.3125 -19.097656 18.25 -19.546875 C 17.195312 -20.003906 16.007812 -20.234375 14.6875 -20.234375 C 13.34375 -20.234375 11.992188 -20 10.640625 -19.53125 C 9.296875 -19.070312 8.03125 -18.398438 6.84375 -17.515625 C 5.65625 -16.640625 4.582031 -15.554688 3.625 -14.265625 C 2.675781 -12.984375 1.929688 -11.519531 1.390625 -9.875 C 0.859375 -8.238281 0.632812 -6.769531 0.71875 -5.46875 C 0.800781 -4.175781 1.132812 -3.082031 1.71875 -2.1875 C 2.3125 -1.289062 3.140625 -0.601562 4.203125 -0.125 C 5.265625 0.351562 6.507812 0.59375 7.9375 0.59375 Z M 8.375 -0.765625 C 6.832031 -0.765625 5.894531 -1.507812 5.5625 -3 C 5.226562 -4.5 5.566406 -6.78125 6.578125 -9.84375 C 7.578125 -12.90625 8.71875 -15.175781 10 -16.65625 C 11.289062 -18.132812 12.707031 -18.875 14.25 -18.875 C 15.75 -18.875 16.675781 -18.128906 17.03125 -16.640625 C 17.382812 -15.148438 17.054688 -12.882812 16.046875 -9.84375 C 15.046875 -6.78125 13.890625 -4.5 12.578125 -3 C 11.265625 -1.507812 9.863281 -0.765625 8.375 -0.765625 Z M 8.375 -0.765625 "/></g></g></g></svg>